<svg width="168" height="187" viewBox="0 0 168 187" fill="none" xmlns="http://www.w3.org/2000/svg">
<path d="M31.877 169.582C31.877 170.484 31.7598 171.299 31.5254 172.025C31.3027 172.74 31.0039 173.373 30.6289 173.924C30.2539 174.475 29.8145 174.943 29.3105 175.33C28.8066 175.717 28.2852 176.033 27.7461 176.279C27.207 176.525 26.6562 176.707 26.0938 176.824C25.543 176.941 25.0215 177 24.5293 177H6.89844V172.43H24.5293C25.4082 172.43 26.0879 172.172 26.5684 171.656C27.0605 171.141 27.3066 170.449 27.3066 169.582C27.3066 169.16 27.2422 168.773 27.1133 168.422C26.9844 168.07 26.7969 167.766 26.5508 167.508C26.3164 167.25 26.0234 167.051 25.6719 166.91C25.332 166.77 24.9512 166.699 24.5293 166.699H14.0176C13.2793 166.699 12.4824 166.57 11.627 166.312C10.7715 166.043 9.97461 165.615 9.23633 165.029C8.50977 164.443 7.90039 163.676 7.4082 162.727C6.92773 161.777 6.6875 160.617 6.6875 159.246C6.6875 157.875 6.92773 156.721 7.4082 155.783C7.90039 154.834 8.50977 154.066 9.23633 153.48C9.97461 152.883 10.7715 152.455 11.627 152.197C12.4824 151.928 13.2793 151.793 14.0176 151.793H29.5742V156.363H14.0176C13.1504 156.363 12.4707 156.627 11.9785 157.154C11.498 157.682 11.2578 158.379 11.2578 159.246C11.2578 160.125 11.498 160.822 11.9785 161.338C12.4707 161.842 13.1504 162.094 14.0176 162.094H24.5293H24.5645C25.0566 162.105 25.5781 162.176 26.1289 162.305C26.6797 162.422 27.2246 162.609 27.7637 162.867C28.3145 163.125 28.8359 163.453 29.3281 163.852C29.8203 164.238 30.2539 164.707 30.6289 165.258C31.0156 165.809 31.3203 166.441 31.543 167.156C31.7656 167.871 31.877 168.68 31.877 169.582ZM56.293 177H51.7227V164.396C51.7227 163.799 51.5703 163.348 51.2656 163.043C50.9609 162.727 50.5039 162.568 49.8945 162.568H41.6504V157.998H49.8945C50.3281 157.998 50.7852 158.051 51.2656 158.156C51.7461 158.25 52.2207 158.402 52.6895 158.613C53.1699 158.824 53.627 159.1 54.0605 159.439C54.4941 159.768 54.875 160.172 55.2031 160.652C55.5312 161.121 55.7949 161.666 55.9941 162.287C56.1934 162.908 56.293 163.611 56.293 164.396V177ZM39.8047 177H35.2344V149.965H39.8047V177ZM65.1172 154.096H60.5469V149.965H65.1172V154.096ZM65.1172 177H60.5469V157.998H65.1172V177ZM86.334 162.568H75.998V157.998H86.334V162.568ZM86.334 154.324H76.0332C75.4121 154.324 74.9434 154.482 74.627 154.799C74.3105 155.104 74.1523 155.555 74.1523 156.152V177H69.582V156.152C69.582 155.367 69.6816 154.664 69.8809 154.043C70.0801 153.422 70.3438 152.877 70.6719 152.408C71.0117 151.928 71.3984 151.523 71.832 151.195C72.2656 150.855 72.7168 150.58 73.1855 150.369C73.666 150.158 74.1465 150.006 74.627 149.912C75.1074 149.807 75.5645 149.754 75.998 149.754H86.334V154.324ZM106.619 162.568H98.6387V177H94.0156V162.568H88.0742V157.998H94.0156V151.793H98.6387V157.998H106.619V162.568ZM129.998 164.291C129.998 164.924 129.887 165.609 129.664 166.348C129.441 167.074 129.078 167.754 128.574 168.387C128.082 169.008 127.432 169.529 126.623 169.951C125.826 170.373 124.854 170.584 123.705 170.584H115.461V166.242H123.705C124.326 166.242 124.807 166.055 125.146 165.68C125.486 165.293 125.656 164.818 125.656 164.256C125.656 163.658 125.463 163.189 125.076 162.85C124.701 162.51 124.244 162.34 123.705 162.34H115.461C114.84 162.34 114.359 162.533 114.02 162.92C113.68 163.295 113.51 163.764 113.51 164.326V170.707C113.51 171.316 113.697 171.791 114.072 172.131C114.459 172.471 114.934 172.641 115.496 172.641H123.705V177H115.461C114.828 177 114.143 176.889 113.404 176.666C112.678 176.443 111.998 176.086 111.365 175.594C110.744 175.09 110.223 174.439 109.801 173.643C109.379 172.834 109.168 171.855 109.168 170.707V164.291C109.168 163.658 109.279 162.979 109.502 162.252C109.725 161.514 110.082 160.834 110.574 160.213C111.078 159.58 111.729 159.053 112.525 158.631C113.334 158.209 114.312 157.998 115.461 157.998H123.705C124.338 157.998 125.018 158.109 125.744 158.332C126.482 158.555 127.162 158.918 127.783 159.422C128.416 159.914 128.943 160.564 129.365 161.373C129.787 162.17 129.998 163.143 129.998 164.291ZM149.703 162.568H139.42C138.799 162.568 138.33 162.727 138.014 163.043C137.697 163.348 137.539 163.799 137.539 164.396V177H132.969V164.396C132.969 163.611 133.068 162.908 133.268 162.287C133.467 161.666 133.73 161.121 134.059 160.652C134.398 160.172 134.785 159.768 135.219 159.439C135.652 159.1 136.104 158.824 136.572 158.613C137.053 158.402 137.533 158.25 138.014 158.156C138.506 158.051 138.963 157.998 139.385 157.998H149.703V162.568Z" fill="#111111"/>
<path d="M130.891 100.381V100.356C127.385 99.1914 122.006 99.5866 121.207 100.064C120.357 100.632 119.628 101.362 119.059 102.212C117.17 104.891 115.817 107.909 115.072 111.101L76.9411 114.646C75.5362 111.612 73.418 108.893 71.2913 107.251C70.6836 106.743 69.9834 106.356 69.229 106.113C68.897 106.073 68.5608 106.085 68.2323 106.147C66.8488 102.139 64.8897 98.2719 62.4407 98.027C57.285 97.5115 48.2883 99.2386 45.8351 104.24C43.3818 109.241 42.6128 121.726 42.6128 121.726L40.8942 123.445C39.6408 121.003 37.8974 118.845 35.7729 117.107C35.1672 116.596 34.4664 116.209 33.7106 115.969C33.281 115.849 31.5624 116.115 29.7622 116.704C29.6892 116.635 29.6204 116.566 29.5431 116.502C27.8245 115.062 24.3015 114.276 22.3337 117.945C20.366 121.614 22.729 128.562 23.9062 130.134C24.4779 130.937 25.1949 131.627 26.02 132.166C27.4078 135.603 29.8868 139.986 33.702 140.188C35.0088 140.258 36.3155 140.047 37.5334 139.568C38.7513 139.089 39.8521 138.354 40.761 137.412C43.2358 134.834 43.5021 131.213 42.5698 127.668L42.9694 127.084C42.9694 127.084 43.8587 128.351 47.2658 127.84C48.2535 127.738 49.1898 127.35 49.9596 126.723C51.5579 130.8 54.14 134.886 58.2431 135.496C60.0041 135.765 61.8024 135.652 63.5157 135.165C65.229 134.677 66.8172 133.826 68.1721 132.669C68.9596 131.989 69.6467 131.2 70.2129 130.327C72.5103 130.201 74.6746 129.209 76.2709 127.552C77.6991 126.029 78.5159 124.033 78.5651 121.945L83.6392 121.352C86.8245 122.773 90.2995 123.424 93.783 123.251C97.1187 123.037 100.276 121.67 102.715 119.384L114.277 118.396C114.47 122.877 116.081 126.989 119.862 129.253C121.31 130.117 122.927 130.657 124.604 130.836C126.28 131.015 127.975 130.828 129.572 130.289C134.904 128.501 136.167 120.579 136.511 115.763C137.044 108.029 134.577 101.477 130.891 100.381Z" fill="#263238" stroke="#263238" stroke-width="0.75" stroke-linecap="round" stroke-linejoin="round"/>
<path d="M60.3026 133.008C59.8592 133.574 59.2938 134.034 58.6484 134.352" stroke="white" stroke-width="0.5" stroke-linecap="round" stroke-linejoin="round"/>
<path d="M62.3842 122.828C62.3842 122.828 62.8955 128.413 60.9922 131.958" stroke="white" stroke-width="0.5" stroke-linecap="round" stroke-linejoin="round"/>
<path d="M63.8938 128.996C63.4083 131.144 62.4416 133.228 60.5684 134.152" stroke="white" stroke-width="0.5" stroke-linecap="round" stroke-linejoin="round"/>
<path d="M66.2277 122.4C66.2277 122.4 67.087 131.685 62.4941 133.928" stroke="white" stroke-width="0.5" stroke-linecap="round" stroke-linejoin="round"/>
<path d="M68.15 122.185C68.15 122.185 69.0093 131.473 64.4121 133.712" stroke="white" stroke-width="0.5" stroke-linecap="round" stroke-linejoin="round"/>
<path d="M126.113 128.695C125.619 129.318 125.006 129.837 124.309 130.22" stroke="white" stroke-width="0.5" stroke-linecap="round" stroke-linejoin="round"/>
<path d="M129.567 117.098C129.567 117.098 129.292 123.453 126.934 127.496" stroke="white" stroke-width="0.5" stroke-linecap="round" stroke-linejoin="round"/>
<path d="M130.182 124.137C129.409 126.581 128.172 128.953 126.217 129.984" stroke="white" stroke-width="0.5" stroke-linecap="round" stroke-linejoin="round"/>
<path d="M133.382 116.626C133.382 116.626 132.922 127.213 128.123 129.747" stroke="white" stroke-width="0.5" stroke-linecap="round" stroke-linejoin="round"/>
<path d="M135.302 116.396C135.302 116.396 134.842 126.978 130.043 129.517" stroke="white" stroke-width="0.5" stroke-linecap="round" stroke-linejoin="round"/>
<path d="M34.9135 138.752C34.5479 139.312 34.0658 139.787 33.5 140.144" stroke="white" stroke-width="0.5" stroke-linecap="round" stroke-linejoin="round"/>
<path d="M35.5922 129.717C35.5922 129.717 36.8038 134.443 35.4375 137.747" stroke="white" stroke-width="0.5" stroke-linecap="round" stroke-linejoin="round"/>
<path d="M37.8365 134.792C37.6431 136.704 36.9772 138.629 35.3145 139.686" stroke="white" stroke-width="0.5" stroke-linecap="round" stroke-linejoin="round"/>
<path d="M39.2209 128.799C39.2209 128.799 41.2402 136.64 37.1328 139.222" stroke="white" stroke-width="0.5" stroke-linecap="round" stroke-linejoin="round"/>
<path d="M41.0314 128.334C41.0314 128.334 43.055 136.175 38.9434 138.761" stroke="white" stroke-width="0.5" stroke-linecap="round" stroke-linejoin="round"/>
<path d="M55.8434 119.642C56.866 125.49 56.2258 130.491 54.4213 130.813C52.6168 131.135 50.3182 126.641 49.2957 120.794C48.2731 114.946 48.9133 109.945 50.7221 109.623C52.5309 109.301 54.8209 113.791 55.8434 119.642Z" fill="#00B672" stroke="#263238" stroke-linecap="round" stroke-linejoin="round"/>
<path d="M54.9308 119.767C55.2144 122.01 54.9523 123.887 54.3379 123.964C53.7235 124.042 53.0017 122.289 52.7182 120.046C52.4346 117.803 52.7182 115.922 53.3111 115.844C53.904 115.767 54.6473 117.524 54.9308 119.767Z" fill="#00B672" stroke="#263238" stroke-linecap="round" stroke-linejoin="round"/>
<path d="M50.6211 114.406C50.682 113.653 50.8013 112.906 50.9777 112.172" stroke="#263238" stroke-width="0.75" stroke-linecap="round" stroke-linejoin="round"/>
<path d="M53.47 128.701C52.281 126.321 51.4307 123.786 50.9437 121.17C50.6201 119.319 50.4891 117.44 50.5527 115.563" stroke="#263238" stroke-width="0.75" stroke-linecap="round" stroke-linejoin="round"/>
<path d="M30.5544 137.021C31.8533 136.661 31.9614 132.961 30.796 128.755C29.6306 124.55 27.633 121.433 26.3341 121.793C25.0353 122.153 24.9272 125.854 26.0926 130.059C27.258 134.264 29.2556 137.381 30.5544 137.021Z" fill="#00B672" stroke="#263238" stroke-linecap="round" stroke-linejoin="round"/>
<path d="M30.3729 128.922C30.7811 130.521 30.7596 131.904 30.3213 132.016C29.8831 132.127 29.2043 130.92 28.7961 129.326C28.388 127.732 28.4094 126.34 28.8477 126.233C29.2859 126.125 29.9647 127.324 30.3729 128.922Z" stroke="#263238" stroke-width="0.75" stroke-linecap="round" stroke-linejoin="round"/>
<path d="M26.7699 125.429C26.7459 124.879 26.7646 124.327 26.8257 123.78" stroke="#263238" stroke-width="0.75" stroke-linecap="round" stroke-linejoin="round"/>
<path d="M30.1196 135.524C29.0452 133.908 28.2021 132.149 27.6148 130.3C27.2133 128.99 26.9484 127.642 26.8242 126.278" stroke="#263238" stroke-width="0.75" stroke-linecap="round" stroke-linejoin="round"/>
<path d="M122.657 56.9859C118.128 47.6412 116.174 46.8291 113.162 46.6745C110.15 46.5198 103.039 45.6347 95.1168 46.9022C95.1168 46.9022 73.0161 46.5155 55.9164 56.8742C38.0648 67.6882 29.3774 77.1876 28.1615 82.1113C26.9457 87.035 22.7953 99.864 20.8276 107.22C18.8598 114.575 17.5193 121.054 20.0284 127.009C21.5451 130.609 23.1605 131.692 25.2357 131.675C24.9182 131.105 24.6383 130.515 24.3979 129.909C22.3356 124.8 22.5848 117.492 24.9392 117.02C27.2937 116.547 28.6986 121.441 30.1207 126.777C30.403 127.953 30.7853 129.103 31.2636 130.214C34.7823 128.886 40.4192 125.917 47.9121 122.833C47.2008 118.146 47.1849 113.38 47.8649 108.689C48.9734 101.355 53.6607 99.7352 55.7015 104.199C57.39 107.877 58.0173 116.109 58.1849 118.884C61.1923 117.849 63.71 117.166 65.261 117.071C65.261 117.071 90.902 111.28 109.802 110.816C128.702 110.352 138.158 109.9 138.158 109.9C138.158 109.9 127.185 66.3134 122.657 56.9859Z" fill="white"/>
<mask id="mask0_48_22002" style="mask-type:luminance" maskUnits="userSpaceOnUse" x="18" y="46" width="121" height="86">
<path d="M122.659 56.9886C118.13 47.6439 116.175 46.8319 113.164 46.6772C110.152 46.5226 103.041 45.6375 95.1188 46.9049C95.1188 46.9049 73.018 46.5183 55.9183 56.8769C38.0667 67.691 29.3794 77.1903 28.1635 82.114C26.9476 87.0377 22.7973 99.8668 20.8295 107.222C18.8618 114.578 17.5213 121.057 20.0304 127.012C21.547 130.612 23.1625 131.695 25.2376 131.677C24.9201 131.108 24.6403 130.518 24.3998 129.912C22.3376 124.803 22.5868 117.495 24.9412 117.022C27.2956 116.55 28.7005 121.443 30.1227 126.78C30.405 127.956 30.7873 129.106 31.2655 130.217C34.7843 128.889 40.4212 125.92 47.9141 122.835C47.2028 118.149 47.1868 113.383 47.8668 108.692C48.9753 101.358 53.6627 99.7379 55.7035 104.202C57.392 107.88 58.0193 116.112 58.1868 118.887C61.1943 117.852 63.712 117.168 65.263 117.074C65.263 117.074 90.904 111.282 109.804 110.818C128.704 110.354 138.16 109.903 138.16 109.903C138.16 109.903 127.187 66.3161 122.659 56.9886Z" fill="white"/>
</mask>
<g mask="url(#mask0_48_22002)">
<path d="M62.2302 102.073C62.2302 102.073 59.6309 105.631 56.4688 106.391C57.5858 110.49 58.0455 116.557 58.1873 118.851C60.8726 117.927 63.154 117.278 64.7179 117.089C64.9456 115.749 65.0831 114.894 65.0831 114.894L62.2302 102.073Z" fill="#00B672"/>
<path opacity="0.2" d="M30.2278 127.162C31.4222 127.283 32.217 127.798 34.6445 127.192C38.9409 126.123 35.8518 117.831 42.9795 114.445C44.3632 113.747 45.8689 113.324 47.4134 113.199C47.4775 111.682 47.6209 110.169 47.8431 108.666C48.0323 107.191 48.468 105.757 49.132 104.426C47.1857 103.829 46.8334 103.257 43.5166 104.834C36.3845 108.22 37.4543 116.954 33.1794 118.024C29.7681 118.883 29.579 117.513 26.9883 118.149C28.1999 119.867 29.1365 123.214 30.0817 126.741C30.1547 126.9 30.1891 127.016 30.2278 127.162Z" fill="#00B672"/>
<g style="mix-blend-mode:multiply">
<path opacity="0.2" d="M23.2105 119.824C21.2127 121.199 20.0226 123.261 19.3438 125.001C19.5279 125.688 19.7546 126.362 20.0226 127.021C21.5392 130.621 23.1547 131.704 25.2298 131.686C24.9123 131.117 24.6325 130.527 24.392 129.921C23.0816 126.668 22.7293 122.531 23.2105 119.824Z" fill="#00B672"/>
</g>
<g style="mix-blend-mode:multiply" opacity="0.2">
<path d="M113.158 46.6744L112.38 46.6271C81.0462 54.6442 68.2987 92.4097 63.9121 110.609C64.1484 112.418 64.4062 114.192 64.6855 115.92C65.2182 115.817 64.8487 117.071 65.2569 117.05C65.2569 117.05 90.8979 111.258 109.798 110.794C128.698 110.33 138.154 109.879 138.154 109.879C138.154 109.879 127.181 66.3133 122.653 56.9858C118.124 47.6583 116.169 46.8119 113.158 46.6744Z" fill="#00B672"/>
</g>
</g>
<path d="M122.657 56.9859C118.128 47.6412 116.174 46.8291 113.162 46.6745C110.15 46.5198 103.039 45.6347 95.1168 46.9022C95.1168 46.9022 73.0161 46.5155 55.9164 56.8742C38.0648 67.6882 29.3774 77.1876 28.1615 82.1113C26.9457 87.035 22.7953 99.864 20.8276 107.22C18.8598 114.575 17.5193 121.054 20.0284 127.009C21.5451 130.609 23.1605 131.692 25.2357 131.675C24.9182 131.105 24.6383 130.515 24.3979 129.909C22.3356 124.8 22.5848 117.492 24.9392 117.02C27.2937 116.547 28.6986 121.441 30.1207 126.777C30.403 127.953 30.7853 129.103 31.2636 130.214C34.7823 128.886 40.4192 125.917 47.9121 122.833C47.2008 118.146 47.1849 113.38 47.8649 108.689C48.9734 101.355 53.6607 99.7352 55.7015 104.199C57.39 107.877 58.0173 116.109 58.1849 118.884C61.1923 117.849 63.71 117.166 65.261 117.071C65.261 117.071 90.902 111.28 109.802 110.816C128.702 110.352 138.158 109.9 138.158 109.9C138.158 109.9 127.185 66.3134 122.657 56.9859Z" stroke="#263238" stroke-linecap="round" stroke-linejoin="round"/>
<path opacity="0.2" d="M28.8652 104.144C29.1602 104.389 29.5192 104.545 29.8998 104.593C30.2804 104.641 30.6669 104.579 31.0134 104.415C32.3668 103.873 32.5043 101.837 32.5043 101.837L34.5322 101.704L34.9404 95.3408L30.4721 97.098C30.4721 97.098 29.2734 103.332 28.8652 104.144Z" fill="#00B672"/>
<path d="M23.0047 122.753C21.7218 123.435 20.5087 124.241 19.3828 125.159C19.561 125.789 19.7761 126.407 20.0273 127.011C21.5439 130.612 23.1594 131.694 25.2345 131.677C24.917 131.107 24.6372 130.518 24.3967 129.911C23.516 127.626 23.0447 125.203 23.0047 122.753Z" fill="#263238" stroke="#263238" stroke-width="0.75" stroke-linecap="round" stroke-linejoin="round"/>
<path d="M29.848 119.205C29.7317 119.205 29.6177 119.173 29.5179 119.113C29.4182 119.054 29.3363 118.968 29.2808 118.866C29.2026 118.718 29.1858 118.544 29.234 118.384C29.2822 118.223 29.3916 118.088 29.5386 118.007C29.6417 117.951 38.0025 112.769 44.9284 109.087C45.0031 109.048 45.085 109.023 45.1693 109.015C45.2536 109.007 45.3386 109.015 45.4196 109.04C45.5006 109.065 45.5759 109.105 45.6413 109.159C45.7066 109.213 45.7608 109.279 45.8005 109.354C45.8403 109.428 45.865 109.51 45.8731 109.595C45.8813 109.679 45.8727 109.764 45.848 109.845C45.8232 109.926 45.7828 110.001 45.729 110.067C45.6751 110.132 45.6089 110.186 45.5342 110.226C38.6126 113.904 30.2561 119.081 30.153 119.137C30.059 119.185 29.9539 119.209 29.848 119.205Z" fill="#263238" stroke="#263238" stroke-miterlimit="10"/>
<path d="M40.7779 76.1346L40.4814 83.5115C40.417 84.5169 41.0013 85.0024 41.7703 84.5684L53.6499 76.8349C54.0867 76.5304 54.4388 76.1199 54.6733 75.6419C54.9078 75.1639 55.0169 74.6341 54.9904 74.1024L54.9174 65.8748C54.8314 65.1272 54.3245 64.8221 53.7015 65.1444C51.4673 66.3001 47.1537 70.2098 41.9981 73.8489C41.6487 74.1258 41.3601 74.4716 41.1502 74.8648C40.9403 75.258 40.8135 75.6903 40.7779 76.1346Z" fill="#00B672" stroke="#263238" stroke-linecap="round" stroke-linejoin="round"/>
<path d="M48.8047 74.059L54.6091 75.4768" stroke="#263238" stroke-linecap="round" stroke-linejoin="round"/>
<path d="M40.8633 84.6053L44.4465 76.6913" stroke="#263238" stroke-linecap="round" stroke-linejoin="round"/>
<path d="M40.8477 75.8932L46.1151 76.5505C46.6607 76.6322 47.3395 76.1811 47.8336 75.3991L54.7079 65.556" stroke="#263238" stroke-linecap="round" stroke-linejoin="round"/>
<path d="M70.2595 62.4303L71.4797 80.9049C71.5113 81.4382 71.6512 81.9594 71.891 82.4368C72.1308 82.9142 72.4653 83.3377 72.8742 83.6815C73.2831 84.0253 73.7578 84.2821 74.2693 84.4363C74.7808 84.5905 75.3183 84.6388 75.8491 84.5783L116.888 79.2508C117.454 79.1856 117.998 78.9985 118.484 78.7023C118.97 78.406 119.386 78.0078 119.703 77.5352C120.02 77.0625 120.231 76.5266 120.321 75.9645C120.41 75.4025 120.377 74.8277 120.222 74.2798L115.041 55.9599C114.796 55.0893 114.257 54.3302 113.517 53.8111C112.776 53.292 111.879 53.0448 110.977 53.1114C104.326 53.6012 88.3732 55.0319 73.3142 58.3874C72.41 58.5928 71.6076 59.1112 71.0486 59.851C70.4896 60.5908 70.2101 61.5044 70.2595 62.4303Z" fill="#00B672" stroke="#263238" stroke-linecap="round" stroke-linejoin="round"/>
<path d="M100.76 68.1586L119.496 77.035" stroke="#263238" stroke-linecap="round" stroke-linejoin="round"/>
<path d="M73.0332 83.7658L88.8569 69.6049" stroke="#263238" stroke-linecap="round" stroke-linejoin="round"/>
<path d="M70.3945 61.9445L93.1011 71.2806C93.9536 71.6288 94.889 71.722 95.7935 71.5489C96.6981 71.3758 97.5329 70.9437 98.1966 70.3053L114.381 55.0229" stroke="#263238" stroke-linecap="round" stroke-linejoin="round"/>
<path d="M115.74 81.8663C119.597 81.7714 122.648 78.6215 122.555 74.8308C122.461 71.0402 119.259 68.0442 115.402 68.1391C111.545 68.2341 108.494 71.384 108.587 75.1746C108.68 78.9653 111.883 81.9612 115.74 81.8663Z" fill="#263238" stroke="#263238" stroke-width="0.75" stroke-linecap="round" stroke-linejoin="round"/>
<path d="M114.818 78.2815H114.797C114.661 78.2818 114.527 78.2501 114.406 78.1889C114.285 78.1276 114.181 78.0386 114.101 77.9292L111.355 74.1397C111.221 73.9551 111.166 73.7249 111.202 73.4997C111.238 73.2745 111.362 73.0728 111.546 72.9389C111.731 72.805 111.961 72.7499 112.186 72.7858C112.412 72.8216 112.613 72.9455 112.747 73.1301L114.797 75.9571L119.695 69.1903C119.828 69.0057 120.03 68.8818 120.255 68.846C120.481 68.8101 120.711 68.8652 120.895 68.9991C121.08 69.133 121.204 69.3347 121.24 69.5599C121.276 69.7851 121.22 70.0153 121.087 70.1999L115.501 77.9335C115.422 78.0404 115.319 78.1275 115.201 78.1879C115.082 78.2483 114.951 78.2803 114.818 78.2815Z" fill="white" stroke="#263238" stroke-linecap="round" stroke-linejoin="round"/>
<path d="M88.8691 96.7981C88.8691 96.7981 103.477 93.9968 113.488 94.1944L114.089 96.6004C114.089 96.6004 93.071 97.5972 89.0668 99.6079L88.8691 96.7981Z" fill="#263238" stroke="#263238" stroke-width="0.75" stroke-linecap="round" stroke-linejoin="round"/>
<path d="M89.0664 99.5989L89.496 102.005C89.5405 102.273 89.6881 102.513 89.9073 102.674C90.1265 102.834 90.3999 102.903 90.669 102.864C94.3338 102.34 107.197 100.574 113.87 100.737C114.034 100.742 114.197 100.709 114.346 100.639C114.495 100.569 114.625 100.464 114.726 100.335C114.827 100.205 114.896 100.053 114.927 99.8916C114.958 99.7301 114.95 99.5636 114.905 99.4055L114.106 96.6086" stroke="#263238" stroke-linecap="round" stroke-linejoin="round"/>
<path d="M35.7604 95.3497L35.6787 85.4249L36.1728 75.221C36.1765 75.1234 36.1507 75.0269 36.0987 74.9442C36.0467 74.8615 35.971 74.7964 35.8814 74.7574C35.7918 74.7185 35.6926 74.7074 35.5967 74.7257C35.5007 74.744 35.4125 74.7908 35.3436 74.8601C33.4961 76.7505 30.334 79.6119 29.3974 81.9577C28.1815 84.9953 26.7422 99.9468 26.7422 99.9468L35.7604 95.3497Z" fill="#263238" stroke="#263238" stroke-width="0.75" stroke-linecap="round" stroke-linejoin="round"/>
<path d="M24.3177 93.3553H22.8784C22.1452 93.3553 21.5508 93.9497 21.5508 94.6829V102.099C21.5508 102.832 22.1452 103.426 22.8784 103.426H24.3177C25.0509 103.426 25.6453 102.832 25.6453 102.099V94.6829C25.6453 93.9497 25.0509 93.3553 24.3177 93.3553Z" fill="#263238" stroke="#263238" stroke-width="0.75" stroke-linecap="round" stroke-linejoin="round"/>
<path d="M25.2246 86.4312C25.9059 86.5619 26.5714 86.765 27.2095 87.037C27.7387 87.2974 28.2197 87.6462 28.6317 88.0682L30.7799 85.2282C30.7799 85.2282 27.6306 83.9092 27.0334 83.1058L26.4405 82.2981L25.2246 86.4312Z" fill="white"/>
<mask id="mask1_48_22002" style="mask-type:luminance" maskUnits="userSpaceOnUse" x="25" y="82" width="6" height="7">
<path d="M25.2266 86.4342C25.9079 86.5649 26.5733 86.768 27.2115 87.04C27.7407 87.3004 28.2216 87.6491 28.6336 88.0711L30.7818 85.2312C30.7818 85.2312 27.6326 83.9122 27.0354 83.1087L26.4424 82.301L25.2266 86.4342Z" fill="white"/>
</mask>
<g mask="url(#mask1_48_22002)">
<g style="mix-blend-mode:multiply" opacity="0.5">
<path d="M27.0311 83.1056L26.4768 82.3365L26.4124 82.3795L25.2266 86.4181C25.2266 86.4181 25.4543 86.4611 25.7765 86.5384L28.8484 84.3129C28.1771 84.0192 27.5621 83.6106 27.0311 83.1056Z" fill="#00B672"/>
</g>
</g>
<path d="M25.2246 86.4312C25.9059 86.5619 26.5714 86.765 27.2095 87.037C27.7387 87.2974 28.2197 87.6462 28.6317 88.0682L30.7799 85.2282C30.7799 85.2282 27.6306 83.9092 27.0334 83.1058L26.4405 82.2981L25.2246 86.4312Z" stroke="#263238" stroke-width="0.75" stroke-linecap="round" stroke-linejoin="round"/>
<path d="M29.7618 84.0195L27.1367 87.3664L27.4933 88.505L31.4933 84.3504L29.7618 84.0195Z" fill="#00B672" stroke="#263238" stroke-linecap="round" stroke-linejoin="round"/>
<path d="M25.5604 74.5624C23.786 73.1876 19.163 74.064 18.2565 77.3207C17.698 79.3271 18.0073 82.3346 18.0073 82.3346L23.2747 81.2176L23.7044 81.8663C24.5636 83.1552 26.424 82.296 26.9052 81.8663C27.1673 81.6386 27.1501 80.9684 27.0813 80.4141L27.2919 80.3669C27.2919 80.3669 27.3305 75.9416 25.5604 74.5624Z" fill="white" stroke="#263238" stroke-width="0.75" stroke-linecap="round" stroke-linejoin="round"/>
<path d="M23.5913 80.8256C21.2794 80.5681 18.9392 80.7904 16.7171 81.4787C13.2799 82.6301 12.7515 83.6269 15.2133 83.5667C17.6752 83.5066 23.5913 80.8256 23.5913 80.8256Z" fill="white" stroke="#263238" stroke-width="0.75" stroke-linecap="round" stroke-linejoin="round"/>
<path d="M19.3472 79.5723C19.7482 79.5723 20.0733 79.128 20.0733 78.5799C20.0733 78.0317 19.7482 77.5874 19.3472 77.5874C18.9462 77.5874 18.6211 78.0317 18.6211 78.5799C18.6211 79.128 18.9462 79.5723 19.3472 79.5723Z" fill="#00B672"/>
<path d="M35.677 85.4235C35.677 85.4235 30.9724 84.2291 29.5245 85.3289C28.0767 86.4288 27.7072 88.2462 28.1712 90.4503C28.6352 92.6543 29.7651 98.4502 29.7651 98.4502L35.7586 95.3482L35.677 85.4235Z" fill="#263238" stroke="#263238" stroke-width="0.75" stroke-linecap="round" stroke-linejoin="round"/>
<path d="M28.2113 97.5276C28.2113 97.5276 27.9578 99.7532 27.6613 100.067C27.3649 100.38 19.5454 93.8112 19.0685 93.1926C18.5916 92.5739 18.9182 90.3655 19.0685 89.6738C19.2189 88.9821 18.9654 88.604 18.2092 89.0809C17.4531 89.5578 17.655 91.5427 17.655 91.5427C17.655 91.5427 15.3478 90.9885 14.8881 90.9241C14.4284 90.8596 14.0288 91.431 14.0976 91.8864C14.1663 92.3419 14.7721 92.3805 14.7721 92.3805C14.6171 93.04 14.6605 93.7306 14.8967 94.3655C15.3006 95.199 15.756 95.7231 16.6153 95.9294C17.5018 96.0677 18.3994 96.1223 19.2962 96.0926C19.2962 96.0926 23.2919 99.8993 24.4519 101.321C25.612 102.743 28.0566 104.677 29.2725 104.329C30.4884 103.981 31.6484 97.91 31.6484 97.91L28.2113 97.5276Z" fill="white"/>
<mask id="mask2_48_22002" style="mask-type:luminance" maskUnits="userSpaceOnUse" x="14" y="88" width="18" height="17">
<path d="M28.2113 97.53C28.2113 97.53 27.9578 99.7556 27.6613 100.069C27.3649 100.383 19.5454 93.8136 19.0685 93.1949C18.5916 92.5763 18.9182 90.3679 19.0685 89.6762C19.2189 88.9845 18.9654 88.6064 18.2092 89.0833C17.4531 89.5602 17.655 91.5451 17.655 91.5451C17.655 91.5451 15.3478 90.9909 14.8881 90.9264C14.4284 90.862 14.0288 91.4334 14.0976 91.8888C14.1663 92.3442 14.7721 92.3829 14.7721 92.3829C14.6171 93.0424 14.6605 93.7329 14.8967 94.3679C15.3006 95.2014 15.756 95.7255 16.6153 95.9318C17.5018 96.0701 18.3994 96.1247 19.2962 96.095C19.2962 96.095 23.2919 99.9016 24.4519 101.324C25.612 102.746 28.0566 104.679 29.2725 104.331C30.4884 103.983 31.6484 97.9124 31.6484 97.9124L28.2113 97.53Z" fill="white"/>
</mask>
<g mask="url(#mask2_48_22002)">
<g style="mix-blend-mode:multiply" opacity="0.5">
<path d="M27.6622 100.066L29.9478 100.827C30.0203 101.306 29.919 101.796 29.6622 102.207C29.4053 102.618 29.0098 102.924 28.5472 103.069C27.5376 103.405 25.7245 102.257 24.4355 101.291L24.4742 101.338C25.6557 102.764 28.0789 104.693 29.2948 104.345C30.5107 103.997 31.6707 97.9267 31.6707 97.9267L28.2121 97.497C28.2121 97.497 27.9586 99.7526 27.6622 100.066Z" fill="#00B672"/>
</g>
</g>
<path d="M28.2113 97.5276C28.2113 97.5276 27.9578 99.7532 27.6613 100.067C27.3649 100.38 19.5454 93.8112 19.0685 93.1926C18.5916 92.5739 18.9182 90.3655 19.0685 89.6738C19.2189 88.9821 18.9654 88.604 18.2092 89.0809C17.4531 89.5578 17.655 91.5427 17.655 91.5427C17.655 91.5427 15.3478 90.9885 14.8881 90.9241C14.4284 90.8596 14.0288 91.431 14.0976 91.8864C14.1663 92.3419 14.7721 92.3805 14.7721 92.3805C14.6171 93.04 14.6605 93.7306 14.8967 94.3655C15.3006 95.199 15.756 95.7231 16.6153 95.9294C17.5018 96.0677 18.3994 96.1223 19.2962 96.0926C19.2962 96.0926 23.2919 99.8993 24.4519 101.321C25.612 102.743 28.0566 104.677 29.2725 104.329C30.4884 103.981 31.6484 97.91 31.6484 97.91L28.2113 97.5276Z" stroke="#263238" stroke-width="0.75" stroke-linecap="round" stroke-linejoin="round"/>
<path d="M20.3987 94.4001L19.2988 96.1101L19.8617 96.4925L20.9873 94.8814L20.3987 94.4001Z" fill="#263238" stroke="#263238" stroke-miterlimit="10"/>
<path d="M20.0175 96.0141C20.2548 96.0141 20.4472 95.8218 20.4472 95.5845C20.4472 95.3472 20.2548 95.1548 20.0175 95.1548C19.7802 95.1548 19.5879 95.3472 19.5879 95.5845C19.5879 95.8218 19.7802 96.0141 20.0175 96.0141Z" fill="white" stroke="#263238" stroke-width="0.75" stroke-linecap="round" stroke-linejoin="round"/>
<path d="M18.9668 82.8878C18.9668 82.8878 19.2289 83.5366 19.6671 84.6751C20.1053 85.8137 22.4598 88.2154 23.6112 88.3529C24.7627 88.4903 26.1418 84.3056 26.3609 83.4421C26.434 83.1585 26.507 82.7031 26.507 82.7031C26.507 82.7031 27.9549 82.0199 27.6198 81.195C27.2846 80.3701 26.6058 79.992 26.2836 80.2455C25.9614 80.499 25.9055 81.5688 25.4243 81.5774C24.9431 81.586 24.681 81.4356 24.2557 80.8685C23.8303 80.3014 19.4222 81.4786 18.9668 82.8878Z" fill="white"/>
<mask id="mask3_48_22002" style="mask-type:luminance" maskUnits="userSpaceOnUse" x="18" y="80" width="10" height="9">
<path d="M18.9648 82.892C18.9648 82.892 19.2269 83.5408 19.6652 84.6793C20.1034 85.8179 22.4578 88.2196 23.6093 88.3571C24.7607 88.4946 26.1399 84.3099 26.359 83.4463C26.432 83.1627 26.505 82.7073 26.505 82.7073C26.505 82.7073 27.9529 82.0242 27.6178 81.1992C27.2827 80.3743 26.6039 79.9963 26.2816 80.2497C25.9594 80.5032 25.9035 81.573 25.4223 81.5816C24.9412 81.5902 24.6791 81.4398 24.2537 80.8727C23.8284 80.3056 19.4203 81.4828 18.9648 82.892Z" fill="white"/>
</mask>
<g mask="url(#mask3_48_22002)">
<path opacity="0.5" d="M24.2451 80.8696C23.8155 80.3068 19.4203 81.484 18.9648 82.8889L19.214 83.5248C20.8941 82.5115 22.7199 81.7624 24.6275 81.3036C24.485 81.1729 24.3568 81.0274 24.2451 80.8696Z" fill="#00B672"/>
<g style="mix-blend-mode:multiply">
<path opacity="0.5" d="M27.5623 81.0846C27.21 80.3456 26.587 80.0105 26.2734 80.2511C26.0768 80.5075 25.931 80.7992 25.8438 81.1104C26.4144 81.0464 26.99 81.0378 27.5623 81.0846Z" fill="#00B672"/>
</g>
</g>
<path d="M18.9668 82.8878C18.9668 82.8878 19.2289 83.5366 19.6671 84.6751C20.1053 85.8137 22.4598 88.2154 23.6112 88.3529C24.7627 88.4903 26.1418 84.3056 26.3609 83.4421C26.434 83.1585 26.507 82.7031 26.507 82.7031C26.507 82.7031 27.9549 82.0199 27.6198 81.195C27.2846 80.3701 26.6058 79.992 26.2836 80.2455C25.9614 80.499 25.9055 81.5688 25.4243 81.5774C24.9431 81.586 24.681 81.4356 24.2557 80.8685C23.8303 80.3014 19.4222 81.4786 18.9668 82.8878Z" stroke="#263238" stroke-width="0.75" stroke-linecap="round" stroke-linejoin="round"/>
<path d="M20.525 83.1954C20.6023 83.4575 20.5766 83.6981 20.4734 83.7281C20.3703 83.7582 20.22 83.5692 20.1426 83.2985C20.0653 83.0278 20.0911 82.7958 20.1942 82.7657C20.2973 82.7357 20.4477 82.9419 20.525 83.1954Z" fill="#263238" stroke="#263238" stroke-miterlimit="10"/>
<path d="M19.7266 82.4657C20.3281 82.2939 20.5858 82.745 20.6589 83.1617L20.7706 83.6558L21.1444 85.5677L21.7115 85.3271" stroke="#263238" stroke-width="0.5" stroke-linecap="round" stroke-linejoin="round"/>
<path d="M22.1758 82.6113C22.3064 82.4679 22.4691 82.3574 22.6505 82.2887C22.8319 82.2201 23.027 82.1951 23.2198 82.216" stroke="#263238" stroke-width="0.5" stroke-linecap="round" stroke-linejoin="round"/>
<path d="M22.6745 81.4207C22.4301 81.4717 22.2058 81.5927 22.0288 81.7689C21.8518 81.9451 21.7299 82.1689 21.6777 82.4131" stroke="#263238" stroke-width="0.5" stroke-linecap="round" stroke-linejoin="round"/>
<path d="M22.2246 85.9431C22.2246 85.9431 23.4706 85.6939 23.5694 84.8003" stroke="#263238" stroke-width="0.5" stroke-linecap="round" stroke-linejoin="round"/>
<path d="M32.8017 100.752L26.5117 98.9995C26.5117 98.9995 27.066 88.2584 28.0369 86.4411C29.5493 83.6183 33.0165 84.89 33.6695 88.4389C34.2796 91.7901 32.8017 100.752 32.8017 100.752Z" fill="#00B672" stroke="#263238" stroke-linecap="round" stroke-linejoin="round"/>
<path d="M26.6602 97.8058C26.6602 97.8058 30.0973 98.5963 32.1896 99.2838" stroke="#263238" stroke-width="0.5" stroke-linecap="round" stroke-linejoin="round"/>
<path d="M32.1035 84.5623C32.1035 84.5623 34.1486 84.7213 35.4848 85.8212" stroke="#00B672" stroke-width="0.5" stroke-linecap="round" stroke-linejoin="round"/>
<path d="M68.1422 112.036C68.1422 112.036 58.9823 115.266 58.1445 116.147C57.3067 117.028 57.3926 120.465 59.369 122.136C61.3453 123.808 75.4332 120.018 85.504 118.914C95.5748 117.81 117.684 116.186 126.707 115.748C135.729 115.309 139.832 116.5 140.623 113.685C141.413 110.871 141.314 107.864 139.596 107.254C137.877 106.644 106.565 101.63 68.1422 112.036Z" fill="#263238" fill-opacity="0.92" stroke="#263238" stroke-width="0.75" stroke-linecap="round" stroke-linejoin="round"/>
<path d="M57.4883 118.026C57.4883 118.026 57.9179 121.751 60.2079 122.322C62.4979 122.893 89.7114 117.738 105.75 117.166C121.788 116.595 135.825 116.165 135.825 116.165" stroke="white" stroke-width="0.5" stroke-linecap="round" stroke-linejoin="round"/>
<path d="M70.7852 119.918C81.4231 117.34 103.305 113.697 140.125 114.732" stroke="white" stroke-width="0.5" stroke-linecap="round" stroke-linejoin="round"/>
<path d="M62.0625 122.185C62.0625 122.185 64.5072 121.592 68.2236 120.578" stroke="white" stroke-width="0.5" stroke-linecap="round" stroke-linejoin="round"/>
<path d="M64.3066 122.612C64.4222 124.209 64.3791 125.814 64.1777 127.403" stroke="white" stroke-width="0.5" stroke-linecap="round" stroke-linejoin="round"/>
<path d="M63.9134 53.9075C63.9134 53.9075 61.864 56.3092 61.7051 58.4617" stroke="#263238" stroke-width="0.75" stroke-linecap="round" stroke-linejoin="round"/>
<path d="M61.4889 60.1984C61.4889 60.1984 59.9465 84.7352 64.0281 110.849" stroke="#263238" stroke-width="0.75" stroke-linecap="round" stroke-linejoin="round"/>
<path d="M61.9761 88.5503C61.9761 88.5503 58.6464 89.7103 58.6035 91.2141C58.4918 95.257 58.9171 103.884 59.7979 104.722C60.6786 105.56 63.4154 103.343 63.4154 103.343C63.4154 103.343 67.2822 103.678 67.7118 102.81C68.1415 101.942 66.5303 89.7275 66.2897 88.662C66.0491 87.5965 61.9761 88.5503 61.9761 88.5503Z" fill="#00B672" stroke="#263238" stroke-linecap="round" stroke-linejoin="round"/>
<path d="M131.526 94.3676C132.393 94.791 133.335 95.0392 134.297 95.098C133.232 91.0937 132.025 86.6341 130.779 82.183C129.653 82.1056 128.201 82.1056 128.231 82.6126C128.252 83.4805 130.439 93.7403 131.526 94.3676Z" fill="#00B672" stroke="#263238" stroke-linecap="round" stroke-linejoin="round"/>
<path d="M61.502 89.8121C61.502 89.8121 61.648 97.5457 62.2195 100.553" stroke="#263238" stroke-width="0.75" stroke-linecap="round" stroke-linejoin="round"/>
<path d="M79.3438 133.273C91.8598 131.361 104.576 131.134 117.152 132.599" stroke="#263238" stroke-linecap="round" stroke-linejoin="round"/>
<path d="M50.1836 99.4279C50.1836 99.4279 63.0213 93.3485 81.5947 91.66" stroke="#263238" stroke-linecap="round" stroke-linejoin="round"/>
<path d="M71.8027 88.2798C71.8027 88.2798 79.5749 86.2562 91.3987 85.5773" stroke="#263238" stroke-linecap="round" stroke-linejoin="round"/>
<path d="M49.9707 131.204C51.5309 133.999 54.0486 136.135 57.0598 137.219" stroke="#263238" stroke-linecap="round" stroke-linejoin="round"/>
<path d="M49.5449 133.138C49.5449 133.138 51.4783 136.145 54.0562 137.434" stroke="#263238" stroke-linecap="round" stroke-linejoin="round"/>
<path d="M112.914 122.397C112.914 122.397 114.203 128.412 119.359 130.989" stroke="#263238" stroke-linecap="round" stroke-linejoin="round"/>
<path d="M113.561 127.769C114.582 129.265 115.994 130.454 117.642 131.206" stroke="#263238" stroke-linecap="round" stroke-linejoin="round"/>
<path d="M28.5605 139.351C28.5605 139.351 29.8495 141.499 34.3607 141.499" stroke="#263238" stroke-linecap="round" stroke-linejoin="round"/>
<path d="M27.7012 140.637C29.3447 142.004 31.3706 142.829 33.5013 143" stroke="#263238" stroke-linecap="round" stroke-linejoin="round"/>
</svg>
