<svg width="50" height="38" viewBox="0 0 50 38" fill="none" xmlns="http://www.w3.org/2000/svg">
<path d="M41.5062 21.281C41.8072 21.1013 43.8337 20.9621 45.1545 21.4008C46.5433 21.8135 47.4723 24.2819 47.2716 27.1953C47.1421 29.0098 46.6663 31.9945 44.6576 32.6678C44.0559 32.871 43.4173 32.9413 42.7858 32.874C42.1543 32.8067 41.5449 32.6032 40.9996 32.2778C39.5752 31.4247 38.9682 29.8757 38.8954 28.1875L34.5397 28.5598C33.6209 29.4209 32.4313 29.9358 31.1746 30.0166C29.8623 30.0815 28.5531 29.8364 27.3531 29.3011L25.4416 29.5245C25.423 30.3109 25.1153 31.0629 24.5772 31.6368C23.9759 32.2611 23.1605 32.6346 22.295 32.6824C22.0817 33.0113 21.8228 33.3083 21.5262 33.5645C21.0157 34.0003 20.4174 34.3209 19.7719 34.5047C19.1265 34.6885 18.449 34.7311 17.7856 34.6296C16.2398 34.3997 15.267 32.8604 14.6649 31.3244C14.3749 31.5606 14.0221 31.7069 13.6501 31.7452C12.3665 31.9378 12.0315 31.4604 12.0315 31.4604L11.8809 31.6805C12.2322 33.0158 12.1318 34.3803 11.1995 35.3515C10.8571 35.7062 10.4424 35.9831 9.98353 36.1635C9.5247 36.3439 9.03244 36.4236 8.54013 36.3971C7.10281 36.321 6.16888 34.67 5.64607 33.3752C5.3352 33.1719 5.0651 32.9122 4.84972 32.6096C4.40622 32.0172 3.51599 29.3999 4.25731 28.0176C4.99863 26.6353 6.32588 26.9315 6.97332 27.4737C6.99526 27.492 7.01536 27.5112 7.0357 27.5306C7.04237 27.537 7.04907 27.5434 7.05587 27.5498C7.73406 27.3281 8.38151 27.2277 8.54337 27.273C8.82808 27.3634 9.09212 27.5092 9.32029 27.702C10.1207 28.3567 10.7775 29.1694 11.2497 30.0894L11.8971 29.442C11.8971 29.442 12.1868 24.7383 13.1111 22.8543C14.0353 20.9702 17.4246 20.3195 19.367 20.5138C20.2896 20.606 21.0276 22.0628 21.5488 23.5729C21.6726 23.5494 21.7992 23.545 21.9243 23.56C22.2085 23.6516 22.4723 23.7972 22.7013 23.9889C23.5025 24.6072 24.3004 25.6318 24.8297 26.7745L39.1948 25.4392C39.4755 24.2367 39.9855 23.0996 40.6969 22.0903C40.9111 21.7702 41.1861 21.4952 41.5062 21.281Z" fill="#263238" stroke="#263238" stroke-width="0.1" stroke-linecap="round" stroke-linejoin="round"/>
<path d="M18.5607 33.692C18.3936 33.9056 18.1806 34.0787 17.9375 34.1986" stroke="white" stroke-width="0.5" stroke-linecap="round" stroke-linejoin="round"/>
<path d="M19.3467 29.8569C19.3467 29.8569 19.5393 31.9611 18.8223 33.2965" stroke="white" stroke-width="0.5" stroke-linecap="round" stroke-linejoin="round"/>
<path d="M19.9149 32.1807C19.732 32.99 19.3678 33.775 18.6621 34.123" stroke="white" stroke-width="0.5" stroke-linecap="round" stroke-linejoin="round"/>
<path d="M20.7933 29.6959C20.7933 29.6959 21.117 33.1937 19.3867 34.0386" stroke="white" stroke-width="0.5" stroke-linecap="round" stroke-linejoin="round"/>
<path d="M21.5176 29.6147C21.5176 29.6147 21.8413 33.1142 20.1094 33.9575" stroke="white" stroke-width="0.5" stroke-linecap="round" stroke-linejoin="round"/>
<path d="M43.3556 32.0673C43.1695 32.3022 42.9384 32.4976 42.6758 32.6419" stroke="white" stroke-width="0.5" stroke-linecap="round" stroke-linejoin="round"/>
<path d="M44.6563 27.6986C44.6563 27.6986 44.5527 30.0925 43.6641 31.6156" stroke="white" stroke-width="0.5" stroke-linecap="round" stroke-linejoin="round"/>
<path d="M44.8865 30.35C44.5952 31.271 44.129 32.1644 43.3926 32.5529" stroke="white" stroke-width="0.5" stroke-linecap="round" stroke-linejoin="round"/>
<path d="M46.0925 27.5206C46.0925 27.5206 45.9193 31.5089 44.1113 32.4638" stroke="white" stroke-width="0.5" stroke-linecap="round" stroke-linejoin="round"/>
<path d="M46.8171 27.4338C46.8171 27.4338 46.6439 31.4205 44.8359 32.377" stroke="white" stroke-width="0.5" stroke-linecap="round" stroke-linejoin="round"/>
<path d="M8.99736 35.8562C8.85962 36.0673 8.67799 36.2461 8.46484 36.3806" stroke="white" stroke-width="0.5" stroke-linecap="round" stroke-linejoin="round"/>
<path d="M9.25358 32.4525C9.25358 32.4525 9.71003 34.233 9.19531 35.4777" stroke="white" stroke-width="0.5" stroke-linecap="round" stroke-linejoin="round"/>
<path d="M10.0966 34.3644C10.0238 35.0847 9.77288 35.8098 9.14648 36.208" stroke="white" stroke-width="0.5" stroke-linecap="round" stroke-linejoin="round"/>
<path d="M10.6187 32.1064C10.6187 32.1064 11.3794 35.0604 9.83203 36.0332" stroke="white" stroke-width="0.5" stroke-linecap="round" stroke-linejoin="round"/>
<path d="M11.3023 31.9314C11.3023 31.9314 12.0646 34.8853 10.5156 35.8597" stroke="white" stroke-width="0.5" stroke-linecap="round" stroke-linejoin="round"/>
<path d="M16.8807 28.6568C17.2659 30.8597 17.0248 32.7438 16.345 32.8652C15.6651 32.9866 14.7992 31.2935 14.414 29.0906C14.0287 26.8877 14.2699 25.0036 14.9513 24.8822C15.6328 24.7609 16.4955 26.4523 16.8807 28.6568Z" fill="#00B672"/>
<path d="M16.5374 28.7038C16.6442 29.5487 16.5455 30.256 16.314 30.2852C16.0826 30.3143 15.8107 29.6539 15.7038 28.809C15.597 27.9641 15.7038 27.2552 15.9272 27.226C16.1506 27.1969 16.4306 27.8589 16.5374 28.7038Z" fill="#00B672" stroke="#263238" stroke-linecap="round" stroke-linejoin="round"/>
<path d="M14.9141 26.6843C14.937 26.4007 14.9819 26.1193 15.0484 25.8427" stroke="#263238" stroke-width="0.75" stroke-linecap="round" stroke-linejoin="round"/>
<path d="M15.9858 32.0697C15.5379 31.1728 15.2175 30.2178 15.034 29.2323C14.9121 28.5352 14.8628 27.8273 14.8867 27.12" stroke="#263238" stroke-width="0.75" stroke-linecap="round" stroke-linejoin="round"/>
<path d="M7.3548 35.2041C7.84411 35.0685 7.88486 33.6743 7.44581 32.0901C7.00677 30.5058 6.25419 29.3315 5.76488 29.4671C5.27557 29.6027 5.23482 30.9969 5.67387 32.5811C6.11291 34.1654 6.8655 35.3397 7.3548 35.2041Z" fill="#00B672"/>
<path d="M7.28614 32.153C7.43991 32.7551 7.43182 33.2763 7.26672 33.3184C7.10162 33.3604 6.84588 32.9056 6.69212 32.3051C6.53835 31.7046 6.54644 31.1802 6.71154 31.1397C6.87664 31.0993 7.13238 31.5508 7.28614 32.153Z" stroke="#263238" stroke-width="0.75" stroke-linecap="round" stroke-linejoin="round"/>
<path d="M5.92959 30.8371C5.92056 30.6297 5.92759 30.4219 5.95063 30.2156" stroke="#263238" stroke-width="0.75" stroke-linecap="round" stroke-linejoin="round"/>
<path d="M7.19069 34.64C6.78594 34.0311 6.46832 33.3686 6.24704 32.6718C6.09579 32.1784 5.99599 31.6707 5.94922 31.1567" stroke="#263238" stroke-width="0.75" stroke-linecap="round" stroke-linejoin="round"/>
<path d="M42.0528 5.05212C40.3468 1.53166 39.6103 1.22575 38.4757 1.16748C37.341 1.10921 34.6622 0.775778 31.6775 1.25327C31.6775 1.25327 23.3515 1.10759 16.9094 5.01004C10.1841 9.08406 6.91133 12.6628 6.45327 14.5177C5.99521 16.3726 4.43164 21.2058 3.69032 23.9768C2.949 26.7479 2.444 29.1887 3.38926 31.4321C3.96063 32.7885 4.56922 33.1964 5.351 33.1899C5.23139 32.9753 5.12596 32.753 5.03538 32.5246C4.25845 30.6001 4.35233 27.8469 5.23932 27.6688C6.12631 27.4908 6.6556 29.3344 7.19135 31.3447C7.2977 31.7878 7.44174 32.221 7.6219 32.6396C8.94754 32.1394 11.0711 31.021 13.894 29.8588C13.626 28.0932 13.62 26.2977 13.8762 24.5304C14.2938 21.7674 16.0597 21.1572 16.8285 22.8389C17.4646 24.2245 17.7009 27.3257 17.7641 28.3713C18.8971 27.9812 19.8456 27.7239 20.4299 27.6883C20.4299 27.6883 30.0897 25.5064 37.2099 25.3316C44.3301 25.1568 47.8927 24.9868 47.8927 24.9868C47.8927 24.9868 43.7588 8.5661 42.0528 5.05212Z" fill="white"/>
<mask id="mask0_1232_4691" style="mask-type:luminance" maskUnits="userSpaceOnUse" x="2" y="1" width="46" height="33">
<path d="M42.0528 5.0531C40.3468 1.53264 39.6103 1.22673 38.4757 1.16846C37.341 1.11019 34.6622 0.776755 31.6775 1.25424C31.6775 1.25424 23.3515 1.10857 16.9094 5.01102C10.1841 9.08503 6.91133 12.6638 6.45327 14.5187C5.99521 16.3736 4.43164 21.2067 3.69032 23.9778C2.949 26.7488 2.444 29.1897 3.38926 31.4331C3.96063 32.7894 4.56922 33.1973 5.351 33.1909C5.23139 32.9762 5.12596 32.754 5.03538 32.5256C4.25845 30.6011 4.35233 27.8479 5.23932 27.6698C6.12631 27.4918 6.6556 29.3353 7.19135 31.3457C7.2977 31.7888 7.44174 32.222 7.6219 32.6405C8.94754 32.1404 11.0711 31.0219 13.894 29.8598C13.626 28.0942 13.62 26.2987 13.8762 24.5313C14.2938 21.7684 16.0597 21.1582 16.8285 22.8399C17.4646 24.2254 17.7009 27.3267 17.7641 28.3723C18.8971 27.9822 19.8456 27.7248 20.4299 27.6892C20.4299 27.6892 30.0897 25.5074 37.2099 25.3326C44.3301 25.1577 47.8927 24.9878 47.8927 24.9878C47.8927 24.9878 43.7588 8.56708 42.0528 5.0531Z" fill="white"/>
</mask>
<g mask="url(#mask0_1232_4691)">
<path d="M19.2877 22.0381C19.2877 22.0381 18.3085 23.3783 17.1172 23.6648C17.538 25.2089 17.7112 27.4944 17.7646 28.3587C18.7763 28.0107 19.6357 27.7663 20.2249 27.6951C20.3107 27.1901 20.3625 26.868 20.3625 26.868L19.2877 22.0381Z" fill="#00B672"/>
<path opacity="0.2" d="M7.23214 31.4899C7.68211 31.5352 7.98155 31.7295 8.89606 31.5012C10.5147 31.0982 9.35089 27.9743 12.0362 26.6989C12.5574 26.436 13.1247 26.2766 13.7065 26.2295C13.7307 25.6578 13.7847 25.0878 13.8684 24.5218C13.9397 23.9659 14.1038 23.4259 14.354 22.9243C13.6208 22.6993 13.488 22.484 12.2385 23.078C9.5516 24.3535 9.95463 27.6441 8.34412 28.0471C7.05895 28.3709 6.98774 27.8545 6.01172 28.0941C6.46816 28.7415 6.82102 30.0024 7.17711 31.3313C7.20463 31.3912 7.21758 31.4349 7.23214 31.4899Z" fill="#00B672"/>
<g style="mix-blend-mode:multiply">
<path opacity="0.2" d="M4.5876 28.7253C3.83495 29.2433 3.3866 30.0202 3.13086 30.6758C3.20023 30.9344 3.28564 31.1885 3.3866 31.4365C3.95796 32.7929 4.56656 33.2008 5.34834 33.1943C5.22873 32.9797 5.1233 32.7575 5.03272 32.5291C4.53904 31.3038 4.40632 29.7451 4.5876 28.7253Z" fill="#00B672"/>
</g>
<g style="mix-blend-mode:multiply" opacity="0.2">
<path d="M38.4743 1.16746L38.1813 1.14966C26.3769 4.16997 21.5745 18.3975 19.9219 25.2539C20.0109 25.9353 20.108 26.6038 20.2132 27.2545C20.4139 27.2156 20.2747 27.6882 20.4285 27.6801C20.4285 27.6801 30.0883 25.4983 37.2085 25.3235C44.3288 25.1487 47.8913 24.9787 47.8913 24.9787C47.8913 24.9787 43.7574 8.56609 42.0514 5.0521C40.3454 1.53812 39.6089 1.21926 38.4743 1.16746Z" fill="#00B672"/>
</g>
</g>
<path d="M42.0528 5.05212C40.3468 1.53166 39.6103 1.22575 38.4757 1.16748C37.341 1.10921 34.6622 0.775778 31.6775 1.25327C31.6775 1.25327 23.3515 1.10759 16.9094 5.01004C10.1841 9.08406 6.91133 12.6628 6.45327 14.5177C5.99521 16.3726 4.43164 21.2058 3.69032 23.9768C2.949 26.7479 2.444 29.1887 3.38926 31.4321C3.96063 32.7885 4.56922 33.1964 5.351 33.1899C5.23139 32.9753 5.12596 32.753 5.03538 32.5246C4.25845 30.6001 4.35233 27.8469 5.23932 27.6688C6.12631 27.4908 6.6556 29.3344 7.19135 31.3447C7.2977 31.7878 7.44174 32.221 7.6219 32.6396C8.94754 32.1394 11.0711 31.021 13.894 29.8588C13.626 28.0932 13.62 26.2977 13.8762 24.5304C14.2938 21.7674 16.0597 21.1572 16.8285 22.8389C17.4646 24.2245 17.7009 27.3257 17.7641 28.3713C18.8971 27.9812 19.8456 27.7239 20.4299 27.6883C20.4299 27.6883 30.0897 25.5064 37.2099 25.3316C44.3301 25.1568 47.8927 24.9868 47.8927 24.9868C47.8927 24.9868 43.7588 8.5661 42.0528 5.05212Z" stroke="#263238" stroke-width="0.5" stroke-linecap="round" stroke-linejoin="round"/>
<path opacity="0.2" d="M6.71875 22.8182C6.82986 22.9107 6.9651 22.9694 7.1085 22.9874C7.2519 23.0055 7.39748 22.9822 7.52805 22.9202C8.03791 22.7163 8.08971 21.949 8.08971 21.949L8.85369 21.8989L9.00745 19.5017L7.32411 20.1637C7.32411 20.1637 6.87252 22.5123 6.71875 22.8182Z" fill="#00B672"/>
<path d="M4.50901 29.829C4.02569 30.0859 3.56868 30.3894 3.14453 30.7354C3.21164 30.9725 3.29271 31.2055 3.38732 31.433C3.95869 32.7894 4.56728 33.1973 5.34907 33.1908C5.22946 32.9762 5.12402 32.754 5.03344 32.5256C4.70162 31.6645 4.5241 30.7517 4.50901 29.829Z" fill="#263238" stroke="#263238" stroke-width="0.75" stroke-linecap="round" stroke-linejoin="round"/>
<path d="M7.08716 28.4923C7.04336 28.492 7.00042 28.4801 6.96283 28.4576C6.92524 28.4351 6.89439 28.4029 6.87351 28.3644C6.84404 28.3085 6.83771 28.2432 6.85587 28.1827C6.87404 28.1221 6.91524 28.0711 6.97062 28.0407C7.00947 28.0196 10.1593 26.0676 12.7685 24.6804C12.7966 24.6655 12.8275 24.6562 12.8592 24.6531C12.891 24.65 12.923 24.6533 12.9535 24.6626C12.984 24.6719 13.0124 24.6871 13.037 24.7074C13.0617 24.7277 13.082 24.7526 13.097 24.7808C13.112 24.809 13.1213 24.8398 13.1244 24.8716C13.1274 24.9033 13.1242 24.9354 13.1149 24.9659C13.1056 24.9964 13.0903 25.0248 13.0701 25.0494C13.0498 25.074 13.0248 25.0944 12.9967 25.1094C10.3891 26.4949 7.24093 28.4453 7.20208 28.4664C7.16665 28.4848 7.12706 28.4937 7.08716 28.4923Z" fill="#263238" stroke="#263238" stroke-width="0.5" stroke-miterlimit="10"/>
<path d="M11.2053 12.266L11.0936 15.0452C11.0693 15.4239 11.2895 15.6068 11.5792 15.4434L16.0546 12.5299C16.2192 12.4152 16.3518 12.2605 16.4402 12.0804C16.5285 11.9003 16.5696 11.7008 16.5596 11.5004L16.5321 8.40082C16.4998 8.11918 16.3088 8.00426 16.0741 8.12566C15.2324 8.56106 13.6073 10.034 11.665 11.4049C11.5334 11.5092 11.4247 11.6395 11.3456 11.7877C11.2665 11.9358 11.2187 12.0986 11.2053 12.266Z" fill="#00B672" stroke="#263238" stroke-width="0.5" stroke-linecap="round" stroke-linejoin="round"/>
<path d="M14.2285 11.4841L16.4152 12.0183" stroke="#263238" stroke-width="0.5" stroke-linecap="round" stroke-linejoin="round"/>
<path d="M11.2383 15.4573L12.5882 12.4758" stroke="#263238" stroke-width="0.5" stroke-linecap="round" stroke-linejoin="round"/>
<path d="M11.2324 12.1751L13.2168 12.4228C13.4224 12.4535 13.6781 12.2836 13.8643 11.989L16.454 8.28076" stroke="#263238" stroke-width="0.5" stroke-linecap="round" stroke-linejoin="round"/>
<path d="M22.3127 7.10326L22.7723 14.0632C22.7842 14.2641 22.837 14.4605 22.9273 14.6404C23.0176 14.8202 23.1437 14.9798 23.2977 15.1093C23.4518 15.2388 23.6306 15.3355 23.8233 15.3936C24.016 15.4517 24.2185 15.4699 24.4184 15.4471L39.8793 13.4401C40.0923 13.4155 40.2975 13.345 40.4806 13.2334C40.6637 13.1218 40.8203 12.9718 40.9398 12.7937C41.0592 12.6157 41.1386 12.4138 41.1723 12.202C41.2061 11.9903 41.1935 11.7737 41.1354 11.5674L39.1833 4.66564C39.0909 4.33766 38.8881 4.05168 38.609 3.85612C38.33 3.66056 37.992 3.56743 37.6521 3.59251C35.1465 3.77703 29.1367 4.31602 23.4635 5.58015C23.1228 5.65754 22.8205 5.85284 22.6099 6.13155C22.3993 6.41026 22.294 6.75443 22.3127 7.10326Z" fill="#00B672" stroke="#263238" stroke-width="0.5" stroke-linecap="round" stroke-linejoin="round"/>
<path d="M33.8027 9.26123L40.8615 12.6053" stroke="#263238" stroke-width="0.5" stroke-linecap="round" stroke-linejoin="round"/>
<path d="M23.3574 15.1411L29.3187 9.80615" stroke="#263238" stroke-width="0.5" stroke-linecap="round" stroke-linejoin="round"/>
<path d="M22.3633 6.92019L30.9176 10.4374C31.2388 10.5686 31.5912 10.6037 31.9319 10.5385C32.2727 10.4733 32.5872 10.3105 32.8373 10.07L38.9345 4.31262" stroke="#263238" stroke-width="0.5" stroke-linecap="round" stroke-linejoin="round"/>
<path d="M39.4458 14.4253C40.8989 14.3896 42.0484 13.2029 42.0132 11.7748C41.9781 10.3468 40.7716 9.21808 39.3185 9.25384C37.8655 9.28961 36.716 10.4763 36.7511 11.9043C36.7863 13.3324 37.9928 14.4611 39.4458 14.4253Z" fill="#263238" stroke="#263238" stroke-width="0.75" stroke-linecap="round" stroke-linejoin="round"/>
<path d="M39.0987 13.0749H39.0906C39.0396 13.0751 38.9892 13.0631 38.9436 13.04C38.898 13.017 38.8586 12.9835 38.8284 12.9422L37.7941 11.5146C37.7437 11.4451 37.7229 11.3583 37.7365 11.2735C37.75 11.1886 37.7966 11.1126 37.8662 11.0622C37.9357 11.0118 38.0224 10.991 38.1073 11.0045C38.1921 11.018 38.2681 11.0647 38.3186 11.1342L39.0906 12.1993L40.9358 9.64997C40.9863 9.58043 41.0623 9.53377 41.1471 9.52027C41.232 9.50676 41.3187 9.52751 41.3882 9.57795C41.4578 9.62839 41.5044 9.70439 41.5179 9.78923C41.5315 9.87407 41.5107 9.9608 41.4603 10.0303L39.3561 12.9438C39.3263 12.9841 39.2875 13.0169 39.2428 13.0397C39.1982 13.0624 39.1488 13.0745 39.0987 13.0749Z" fill="white" stroke="#263238" stroke-linecap="round" stroke-linejoin="round"/>
<path d="M29.3223 20.0507C29.3223 20.0507 34.8255 18.9953 38.5969 19.0698L38.8235 19.9762C38.8235 19.9762 30.9053 20.3517 29.3967 21.1092L29.3223 20.0507Z" fill="#263238" stroke="#263238" stroke-width="0.75" stroke-linecap="round" stroke-linejoin="round"/>
<path d="M29.3965 21.1059L29.5583 22.0123C29.5751 22.1133 29.6307 22.2038 29.7133 22.2643C29.7959 22.3248 29.8989 22.3505 30.0002 22.3361C31.3809 22.1386 36.227 21.4733 38.7407 21.5348C38.8026 21.5367 38.8641 21.524 38.9201 21.4976C38.9762 21.4713 39.0252 21.432 39.0632 21.3831C39.1013 21.3342 39.1272 21.277 39.1389 21.2162C39.1507 21.1554 39.1479 21.0926 39.1307 21.0331L38.8297 19.9794" stroke="#263238" stroke-linecap="round" stroke-linejoin="round"/>
<path d="M9.31541 19.505L9.28466 15.7661L9.4708 11.9219C9.47219 11.8851 9.46246 11.8488 9.44287 11.8176C9.42329 11.7865 9.39476 11.7619 9.36102 11.7473C9.32728 11.7326 9.28989 11.7284 9.25374 11.7353C9.2176 11.7422 9.18437 11.7598 9.15841 11.7859C8.46241 12.4981 7.27112 13.5761 6.91826 14.4598C6.4602 15.6042 5.91797 21.2369 5.91797 21.2369L9.31541 19.505Z" fill="#263238" stroke="#263238" stroke-width="0.1" stroke-linecap="round" stroke-linejoin="round"/>
<path d="M5.00527 18.7538H4.46304C4.18681 18.7538 3.96289 18.9777 3.96289 19.2539V22.0476C3.96289 22.3239 4.18681 22.5478 4.46304 22.5478H5.00527C5.28149 22.5478 5.50542 22.3239 5.50542 22.0476V19.2539C5.50542 18.9777 5.28149 18.7538 5.00527 18.7538Z" fill="#263238" stroke="#263238" stroke-width="0.1" stroke-linecap="round" stroke-linejoin="round"/>
<path d="M5.3457 16.1451C5.60238 16.1943 5.85307 16.2709 6.0935 16.3733C6.29286 16.4714 6.47404 16.6028 6.62925 16.7618L7.43855 15.6919C7.43855 15.6919 6.25212 15.195 6.02713 14.8923L5.80377 14.588L5.3457 16.1451Z" fill="white"/>
<mask id="mask1_1232_4691" style="mask-type:luminance" maskUnits="userSpaceOnUse" x="5" y="14" width="3" height="3">
<path d="M5.3457 16.1463C5.60238 16.1956 5.85307 16.2721 6.0935 16.3745C6.29286 16.4727 6.47404 16.604 6.62925 16.763L7.43855 15.6931C7.43855 15.6931 6.25212 15.1962 6.02713 14.8935L5.80377 14.5892L5.3457 16.1463Z" fill="white"/>
</mask>
<g mask="url(#mask1_1232_4691)">
<g style="mix-blend-mode:multiply" opacity="0.5">
<path d="M6.02552 14.8923L5.81672 14.6025L5.79244 14.6187L5.3457 16.1402C5.3457 16.1402 5.43149 16.1564 5.55288 16.1855L6.71018 15.3471C6.45726 15.2364 6.22556 15.0825 6.02552 14.8923Z" fill="#00B672"/>
</g>
</g>
<path d="M5.3457 16.1451C5.60238 16.1943 5.85307 16.2709 6.0935 16.3733C6.29286 16.4714 6.47404 16.6028 6.62925 16.7618L7.43855 15.6919C7.43855 15.6919 6.25212 15.195 6.02713 14.8923L5.80377 14.588L5.3457 16.1451Z" stroke="#263238" stroke-width="0.75" stroke-linecap="round" stroke-linejoin="round"/>
<path d="M7.05537 15.2366L6.06641 16.4975L6.20075 16.9264L7.70767 15.3612L7.05537 15.2366Z" fill="#00B672" stroke="#263238" stroke-linecap="round" stroke-linejoin="round"/>
<path d="M5.47144 11.6737C4.80296 11.1558 3.06134 11.486 2.71982 12.7129C2.5094 13.4688 2.62594 14.6018 2.62594 14.6018L4.61034 14.1809L4.7722 14.4254C5.09592 14.9109 5.79678 14.5872 5.97806 14.4254C6.0768 14.3396 6.07032 14.0871 6.04442 13.8783L6.12373 13.8605C6.12373 13.8605 6.1383 12.1933 5.47144 11.6737Z" fill="white" stroke="#263238" stroke-width="0.1" stroke-linecap="round" stroke-linejoin="round"/>
<path d="M4.7311 14.0333C3.86011 13.9363 2.97847 14.02 2.14134 14.2793C0.846458 14.7131 0.647371 15.0886 1.57483 15.066C2.50229 15.0433 4.7311 14.0333 4.7311 14.0333Z" fill="white" stroke="#263238" stroke-width="0.1" stroke-linecap="round" stroke-linejoin="round"/>
<path d="M3.13292 13.5611C3.28399 13.5611 3.40646 13.3937 3.40646 13.1873C3.40646 12.9808 3.28399 12.8134 3.13292 12.8134C2.98185 12.8134 2.85938 12.9808 2.85938 13.1873C2.85938 13.3937 2.98185 13.5611 3.13292 13.5611Z" fill="#00B672"/>
<path d="M9.28357 15.7655C9.28357 15.7655 7.5112 15.3156 6.96573 15.7299C6.42027 16.1443 6.28107 16.829 6.45588 17.6593C6.63069 18.4896 7.05638 20.6731 7.05638 20.6731L9.31433 19.5045L9.28357 15.7655Z" fill="#263238" stroke="#263238" stroke-width="0.75" stroke-linecap="round" stroke-linejoin="round"/>
<path d="M6.47041 20.3256C6.47041 20.3256 6.37491 21.164 6.26323 21.2822C6.15154 21.4003 3.20569 18.9255 3.02603 18.6924C2.84636 18.4593 2.96938 17.6274 3.02603 17.3668C3.08268 17.1062 2.98718 16.9637 2.70231 17.1434C2.41743 17.3231 2.49351 18.0709 2.49351 18.0709C2.49351 18.0709 1.62432 17.8621 1.45113 17.8378C1.27794 17.8135 1.12741 18.0288 1.15331 18.2004C1.1792 18.3719 1.40743 18.3865 1.40743 18.3865C1.34904 18.6349 1.36537 18.8951 1.45437 19.1343C1.60651 19.4483 1.77809 19.6458 2.10181 19.7235C2.4358 19.7756 2.77396 19.7962 3.11181 19.785C3.11181 19.785 4.61711 21.2191 5.05413 21.7548C5.49116 22.2906 6.41214 23.0189 6.8702 22.8878C7.32827 22.7567 7.76529 20.4696 7.76529 20.4696L6.47041 20.3256Z" fill="white"/>
<mask id="mask2_1232_4691" style="mask-type:luminance" maskUnits="userSpaceOnUse" x="1" y="17" width="7" height="6">
<path d="M6.47041 20.3264C6.47041 20.3264 6.37491 21.1649 6.26323 21.283C6.15154 21.4012 3.20569 18.9263 3.02603 18.6933C2.84636 18.4602 2.96938 17.6282 3.02603 17.3676C3.08268 17.107 2.98718 16.9646 2.70231 17.1443C2.41743 17.3239 2.49351 18.0717 2.49351 18.0717C2.49351 18.0717 1.62432 17.8629 1.45113 17.8386C1.27794 17.8144 1.12741 18.0296 1.15331 18.2012C1.1792 18.3728 1.40743 18.3874 1.40743 18.3874C1.34904 18.6358 1.36537 18.896 1.45437 19.1351C1.60651 19.4492 1.77809 19.6466 2.10181 19.7243C2.4358 19.7764 2.77396 19.797 3.11181 19.7858C3.11181 19.7858 4.61711 21.2199 5.05413 21.7557C5.49116 22.2914 6.41214 23.0198 6.8702 22.8887C7.32827 22.7576 7.76529 20.4705 7.76529 20.4705L6.47041 20.3264Z" fill="white"/>
</mask>
<g mask="url(#mask2_1232_4691)">
<g style="mix-blend-mode:multiply" opacity="0.5">
<path d="M6.2644 21.2819L7.12549 21.5684C7.1528 21.749 7.11463 21.9334 7.01787 22.0884C6.9211 22.2433 6.77212 22.3586 6.59783 22.4133C6.21746 22.5395 5.53441 22.1074 5.04883 21.7432L5.0634 21.761C5.50851 22.2984 6.4214 23.0251 6.87947 22.894C7.33753 22.7629 7.77455 20.4758 7.77455 20.4758L6.47158 20.314C6.47158 20.314 6.37608 21.1637 6.2644 21.2819Z" fill="#00B672"/>
</g>
</g>
<path d="M6.47041 20.3256C6.47041 20.3256 6.37491 21.164 6.26323 21.2822C6.15154 21.4003 3.20569 18.9255 3.02603 18.6924C2.84636 18.4593 2.96938 17.6274 3.02603 17.3668C3.08268 17.1062 2.98718 16.9637 2.70231 17.1434C2.41743 17.3231 2.49351 18.0709 2.49351 18.0709C2.49351 18.0709 1.62432 17.8621 1.45113 17.8378C1.27794 17.8135 1.12741 18.0288 1.15331 18.2004C1.1792 18.3719 1.40743 18.3865 1.40743 18.3865C1.34904 18.6349 1.36537 18.8951 1.45437 19.1343C1.60651 19.4483 1.77809 19.6458 2.10181 19.7235C2.4358 19.7756 2.77396 19.7962 3.11181 19.785C3.11181 19.785 4.61711 21.2191 5.05413 21.7548C5.49116 22.2906 6.41214 23.0189 6.8702 22.8878C7.32827 22.7567 7.76529 20.4696 7.76529 20.4696L6.47041 20.3256Z" stroke="#263238" stroke-width="0.1" stroke-linecap="round" stroke-linejoin="round"/>
<path d="M3.52764 19.1473L3.11328 19.7915L3.32532 19.9356L3.74939 19.3286L3.52764 19.1473Z" fill="#263238" stroke="#263238" stroke-miterlimit="10"/>
<path d="M3.38452 19.7554C3.47391 19.7554 3.54638 19.6829 3.54638 19.5935C3.54638 19.5041 3.47391 19.4316 3.38452 19.4316C3.29512 19.4316 3.22266 19.5041 3.22266 19.5935C3.22266 19.6829 3.29512 19.7554 3.38452 19.7554Z" fill="white" stroke="#263238" stroke-width="0.75" stroke-linecap="round" stroke-linejoin="round"/>
<path d="M2.99023 14.8103C2.99023 14.8103 3.08897 15.0547 3.25407 15.4836C3.41916 15.9126 4.30616 16.8174 4.73994 16.8692C5.17373 16.921 5.6933 15.3444 5.77585 15.0191C5.80336 14.9123 5.83088 14.7407 5.83088 14.7407C5.83088 14.7407 6.37635 14.4833 6.2501 14.1726C6.12385 13.8618 5.86811 13.7194 5.74671 13.8149C5.62532 13.9104 5.60427 14.3134 5.42299 14.3166C5.24171 14.3199 5.14297 14.2632 4.98273 14.0496C4.82249 13.8359 3.16181 14.2794 2.99023 14.8103Z" fill="white"/>
<mask id="mask3_1232_4691" style="mask-type:luminance" maskUnits="userSpaceOnUse" x="2" y="13" width="5" height="4">
<path d="M2.98828 14.8119C2.98828 14.8119 3.08702 15.0563 3.25211 15.4852C3.41721 15.9142 4.3042 16.8189 4.73799 16.8707C5.17177 16.9225 5.69134 15.346 5.77389 15.0207C5.80141 14.9139 5.82893 14.7423 5.82893 14.7423C5.82893 14.7423 6.37439 14.4849 6.24814 14.1742C6.12189 13.8634 5.86615 13.7209 5.74476 13.8164C5.62336 13.9119 5.60232 14.315 5.42104 14.3182C5.23976 14.3214 5.14102 14.2648 4.98078 14.0511C4.82054 13.8375 3.15985 14.281 2.98828 14.8119Z" fill="white"/>
</mask>
<g mask="url(#mask3_1232_4691)">
<path opacity="0.5" d="M4.97754 14.0499C4.81568 13.8378 3.15985 14.2813 2.98828 14.8106L3.08216 15.0502C3.71511 14.6684 4.40295 14.3862 5.1216 14.2134C5.0679 14.1641 5.01961 14.1093 4.97754 14.0499Z" fill="#00B672"/>
<g style="mix-blend-mode:multiply">
<path opacity="0.5" d="M6.22752 14.131C6.09479 13.8526 5.8601 13.7264 5.74194 13.817C5.66788 13.9136 5.61294 14.0235 5.58008 14.1407C5.79508 14.1166 6.0119 14.1134 6.22752 14.131Z" fill="#00B672"/>
</g>
</g>
<path d="M2.99023 14.8103C2.99023 14.8103 3.08897 15.0547 3.25407 15.4836C3.41916 15.9126 4.30616 16.8174 4.73994 16.8692C5.17373 16.921 5.6933 15.3444 5.77585 15.0191C5.80336 14.9123 5.83088 14.7407 5.83088 14.7407C5.83088 14.7407 6.37635 14.4833 6.2501 14.1726C6.12385 13.8618 5.86811 13.7194 5.74671 13.8149C5.62532 13.9104 5.60427 14.3134 5.42299 14.3166C5.24171 14.3199 5.14297 14.2632 4.98273 14.0496C4.82249 13.8359 3.16181 14.2794 2.99023 14.8103Z" stroke="#263238" stroke-width="0.1" stroke-linecap="round" stroke-linejoin="round"/>
<path d="M3.57506 14.9261C3.60419 15.0249 3.59448 15.1155 3.55563 15.1269C3.51679 15.1382 3.46014 15.067 3.431 14.965C3.40187 14.863 3.41158 14.7756 3.45043 14.7643C3.48927 14.753 3.54592 14.8306 3.57506 14.9261Z" fill="#263238" stroke="#263238" stroke-width="0.1" stroke-miterlimit="10"/>
<path d="M4.19922 14.7061C4.24845 14.652 4.30972 14.6104 4.37806 14.5845C4.4464 14.5587 4.51989 14.5493 4.59254 14.5571" stroke="#263238" stroke-width="0.1" stroke-linecap="round" stroke-linejoin="round"/>
<path d="M4.38528 14.2574C4.2932 14.2767 4.20869 14.3223 4.14202 14.3887C4.07536 14.455 4.02941 14.5393 4.00977 14.6313" stroke="#263238" stroke-width="0.1" stroke-linecap="round" stroke-linejoin="round"/>
<path d="M4.2168 15.9613C4.2168 15.9613 4.68619 15.8674 4.72342 15.5308" stroke="#263238" stroke-width="0.1" stroke-linecap="round" stroke-linejoin="round"/>
<path d="M8.20166 21.5404L5.83203 20.88C5.83203 20.88 6.04083 16.8335 6.40663 16.1488C6.97638 15.0854 8.28259 15.5645 8.52862 16.9015C8.75846 18.164 8.20166 21.5404 8.20166 21.5404Z" fill="#00B672" stroke="#263238" stroke-width="0.1" stroke-linecap="round" stroke-linejoin="round"/>
<path d="M5.88867 20.4304C5.88867 20.4304 7.18355 20.7282 7.97181 20.9872" stroke="#263238" stroke-width="0.1" stroke-linecap="round" stroke-linejoin="round"/>
<path d="M7.9375 15.441C7.9375 15.441 8.70795 15.5009 9.21134 15.9153" stroke="#00B672" stroke-width="0.5" stroke-linecap="round" stroke-linejoin="round"/>
<path d="M21.5142 25.7912C21.5142 25.7912 18.0633 27.0084 17.7477 27.3402C17.432 27.672 17.4644 28.9669 18.209 29.5965C18.9535 30.2262 24.2609 28.7986 28.0549 28.3826C31.8489 27.9666 40.1782 27.3548 43.5773 27.1897C46.9764 27.0246 48.5221 27.4729 48.82 26.4127C49.1178 25.3526 49.0806 24.2195 48.4331 23.9897C47.7857 23.7598 35.9893 21.8709 21.5142 25.7912Z" fill="#263238" fill-opacity="0.92" stroke="#263238" stroke-width="0.75" stroke-linecap="round" stroke-linejoin="round"/>
<path d="M17.502 28.0478C17.502 28.0478 17.6638 29.4511 18.5265 29.6664C19.3892 29.8817 29.6415 27.9393 35.6837 27.7241C41.7259 27.5088 47.0139 27.3469 47.0139 27.3469" stroke="white" stroke-width="0.2" stroke-linecap="round" stroke-linejoin="round"/>
<path d="M22.5117 28.7608C26.5194 27.7897 34.7629 26.4171 48.6343 26.8072" stroke="white" stroke-width="0.2" stroke-linecap="round" stroke-linejoin="round"/>
<path d="M19.2246 29.6149C19.2246 29.6149 20.1456 29.3915 21.5457 29.0095" stroke="white" stroke-width="0.5" stroke-linecap="round" stroke-linejoin="round"/>
<path d="M20.07 29.7758C20.1136 30.3775 20.0973 30.982 20.0215 31.5805" stroke="white" stroke-width="0.5" stroke-linecap="round" stroke-linejoin="round"/>
<path d="M19.9218 3.89233C19.9218 3.89233 19.1497 4.79713 19.0898 5.60805" stroke="#263238" stroke-width="0.75" stroke-linecap="round" stroke-linejoin="round"/>
<path d="M19.0081 6.26245C19.0081 6.26245 18.427 15.5063 19.9647 25.3441" stroke="#263238" stroke-width="0.5" stroke-linecap="round" stroke-linejoin="round"/>
<path d="M19.1932 16.9435C19.1932 16.9435 17.9388 17.3805 17.9226 17.947C17.8805 19.4701 18.0408 22.7202 18.3726 23.0359C18.7044 23.3515 19.7354 22.5163 19.7354 22.5163C19.7354 22.5163 21.1922 22.6426 21.354 22.3156C21.5159 21.9886 20.9089 17.387 20.8183 16.9855C20.7277 16.5841 19.1932 16.9435 19.1932 16.9435Z" fill="#00B672" stroke="#263238" stroke-linecap="round" stroke-linejoin="round"/>
<path d="M45.394 19.1351C45.7205 19.2946 46.0753 19.3881 46.438 19.4102C46.0366 17.9017 45.5817 16.2216 45.1124 14.5447C44.6883 14.5156 44.1412 14.5156 44.1525 14.7066C44.1606 15.0335 44.9845 18.8987 45.394 19.1351Z" fill="#00B672" stroke="#263238" stroke-linecap="round" stroke-linejoin="round"/>
<path d="M19.0137 17.4188C19.0137 17.4188 19.0687 20.3323 19.284 21.4653" stroke="#263238" stroke-width="0.75" stroke-linecap="round" stroke-linejoin="round"/>
<path d="M14.75 21.0414C14.75 21.0414 19.5864 18.7511 26.5836 18.115" stroke="#263238" stroke-width="0.5" stroke-linecap="round" stroke-linejoin="round"/>
<path d="M22.8945 16.8416C22.8945 16.8416 25.8226 16.0792 30.277 15.8235" stroke="#263238" stroke-linecap="round" stroke-linejoin="round"/>
<path d="M14.6699 33.0127C15.2577 34.0654 16.2062 34.8702 17.3406 35.2787" stroke="#263238" stroke-linecap="round" stroke-linejoin="round"/>
<path d="M14.5078 33.7411C14.5078 33.7411 15.2362 34.8741 16.2073 35.3597" stroke="#263238" stroke-linecap="round" stroke-linejoin="round"/>
<path d="M38.3828 29.6945C38.3828 29.6945 38.8684 31.9605 40.8107 32.9317" stroke="#263238" stroke-linecap="round" stroke-linejoin="round"/>
<path d="M38.625 31.7185C39.0099 32.2822 39.5417 32.73 40.1627 33.0134" stroke="#263238" stroke-linecap="round" stroke-linejoin="round"/>
<path d="M6.60352 36.0817C6.60352 36.0817 7.0891 36.891 8.78863 36.891" stroke="#263238" stroke-linecap="round" stroke-linejoin="round"/>
<path d="M6.2793 36.5663C6.89847 37.0812 7.66168 37.3921 8.46441 37.4565" stroke="#263238" stroke-linecap="round" stroke-linejoin="round"/>
</svg>
